<?xml version="1.0" encoding="UTF-8" standalone="no"?>
<svg
   version="1.1"
   id="Layer_1"
   x="0px"
   y="0px"
   width="502"
   height="461"
   viewBox="0 0 502 461"
   enable-background="new 0 0 502 461"
   xml:space="preserve"
   sodipodi:docname="testnativian.svg"
   inkscape:version="1.1.2 (0a00cf5339, 2022-02-04, custom)"
   xmlns:inkscape="http://www.inkscape.org/namespaces/inkscape"
   xmlns:sodipodi="http://sodipodi.sourceforge.net/DTD/sodipodi-0.dtd"
   xmlns="http://www.w3.org/2000/svg"
   xmlns:svg="http://www.w3.org/2000/svg"><defs
   id="defs6" /><sodipodi:namedview
   id="namedview4"
   pagecolor="#ffffff"
   bordercolor="#666666"
   borderopacity="1.0"
   inkscape:pageshadow="2"
   inkscape:pageopacity="0.0"
   inkscape:pagecheckerboard="0"
   showgrid="false"
   inkscape:zoom="0.90509668"
   inkscape:cx="464.03883"
   inkscape:cy="167.93786"
   inkscape:window-width="1798"
   inkscape:window-height="1270"
   inkscape:window-x="38"
   inkscape:window-y="517"
   inkscape:window-maximized="0"
   inkscape:current-layer="g364" />  
<g
   id="g364"
   transform="matrix(4.4030948,0,0,4.4030948,-1099.3346,-1065.6584)"><g
     id="g4142"
     transform="translate(-1.2865056,1.4315262)"><path
       style="fill:#9884ef;stroke-width:0.0974618"
       d="m 266.10019,293.52886 v -37.91263 h 41.51871 41.51872 v 37.91263 37.91263 H 307.6189 266.10019 Z"
       id="path4172" /><path
       style="fill:#8c78e3;stroke-width:0.0974618"
       d="m 266.38508,331.1566 -0.28489,-0.28489 v -37.34285 -37.34285 l 0.28489,-0.28489 0.28489,-0.28489 h 40.94893 40.94894 l 0.28527,0.28526 0.28526,0.28527 -0.0247,37.39215 -0.0247,37.39215 -0.27346,0.23521 -0.27345,0.23522 h -40.93601 -40.936 z m 55.78757,-46.53454 c -0.15158,-0.2285 -2.19743,-3.24669 -4.54634,-6.70709 -3.36554,-4.9581 -4.34079,-6.32935 -4.60122,-6.4696 -0.18176,-0.0979 -0.34399,-0.15797 -0.36049,-0.13352 -0.0165,0.0245 -0.007,1.73298 0.0205,3.79673 l 0.0505,3.75228 4.44678,2.97259 c 2.44573,1.63492 4.61669,3.11643 4.82436,3.29224 0.35566,0.30111 0.37943,0.30783 0.40951,0.11574 0.0176,-0.11215 -0.0921,-0.39087 -0.24365,-0.61937 z"
       id="path4170" /><path
       style="fill:#6b53d0;stroke-width:0.0974618"
       d="m 266.38508,331.1566 -0.28489,-0.28489 v -37.34285 -37.34285 l 0.28489,-0.28489 0.28489,-0.28489 h 40.94893 40.94894 l 0.28489,0.28489 0.28489,0.28489 v 37.2443 c 0,27.23906 -0.0293,37.30148 -0.10887,37.45718 -0.0599,0.11708 -0.20241,0.28866 -0.31675,0.38127 -0.19622,0.15894 -2.50399,0.16851 -41.12496,0.17056 l -40.91707,0.002 z m 56.03897,-46.22392 c -0.38159,-0.72152 -8.91944,-13.16981 -9.20419,-13.41983 -0.18964,-0.1665 -0.43733,-0.30274 -0.55043,-0.30274 -0.19502,0 -0.20242,0.0339 -0.14349,0.65787 0.0342,0.36183 0.0624,2.1181 0.0628,3.90283 l 6.8e-4,3.24495 4.60507,3.05763 c 2.53279,1.6817 4.75857,3.17316 4.94619,3.31436 l 0.34111,0.25674 0.0304,-0.24385 c 0.0167,-0.13412 -0.023,-0.3447 -0.0881,-0.46796 z"
       id="path4168" /><path
       style="fill:#ae9933;stroke-width:0.0974618"
       d="m 266.38508,331.1566 -0.28489,-0.28489 v -37.34285 -37.34285 l 0.28489,-0.28489 0.28489,-0.28489 h 40.94893 40.94894 l 0.28489,0.28489 0.28489,0.28489 v 37.2443 c 0,27.23906 -0.0293,37.30148 -0.10887,37.45718 -0.0599,0.11708 -0.20241,0.28866 -0.31675,0.38127 -0.19622,0.15894 -2.50399,0.16851 -41.12496,0.17056 l -40.91707,0.002 z m 48.31511,-8.30613 c 0.12745,-0.11973 0.78415,-1.5275 1.53444,-3.28934 l 1.31163,-3.08003 2.50168,-15.39895 c 1.37592,-8.46943 2.52244,-15.43272 2.54781,-15.47397 0.13989,-0.22744 -0.59736,-1.395 -4.68497,-7.41945 -4.45441,-6.56507 -4.76585,-6.97725 -5.27259,-6.97829 -0.19174,-3.9e-4 -0.19493,0.0645 -0.19493,3.96423 v 3.96462 l -7.21217,5.44154 c -5.09208,3.84195 -7.20656,5.49137 -7.19308,5.61103 0.0105,0.0932 3.51316,7.20867 7.78368,15.8121 4.27053,8.60344 7.91443,15.96059 8.09756,16.34922 0.18312,0.38862 0.38363,0.70659 0.44555,0.70659 0.0619,0 0.21286,-0.0942 0.33539,-0.2093 z"
       id="path4166" /><path
       style="fill:#5946ab;stroke-width:0.0974618"
       d="m 266.38508,331.1566 -0.28489,-0.28489 v -37.34285 -37.34285 l 0.28489,-0.28489 0.28489,-0.28489 h 40.94893 40.94894 l 0.28489,0.28489 0.28489,0.28489 v 37.2443 c 0,27.23906 -0.0293,37.30148 -0.10887,37.45718 -0.0599,0.11708 -0.20241,0.28866 -0.31675,0.38127 -0.19622,0.15894 -2.50399,0.16851 -41.12496,0.17056 l -40.91707,0.002 z m 48.31511,-8.30613 c 0.12745,-0.11973 0.78415,-1.5275 1.53444,-3.28934 l 1.31163,-3.08003 2.50168,-15.39895 c 1.37592,-8.46943 2.52244,-15.43272 2.54781,-15.47397 0.13989,-0.22744 -0.59736,-1.395 -4.68497,-7.41945 -4.45441,-6.56507 -4.76585,-6.97725 -5.27259,-6.97829 -0.19174,-3.9e-4 -0.19493,0.0645 -0.19493,3.96423 v 3.96462 l -7.21217,5.44154 c -5.09208,3.84195 -7.20656,5.49137 -7.19308,5.61103 0.0105,0.0932 3.51316,7.20867 7.78368,15.8121 4.27053,8.60344 7.91443,15.96059 8.09756,16.34922 0.18312,0.38862 0.38363,0.70659 0.44555,0.70659 0.0619,0 0.21286,-0.0942 0.33539,-0.2093 z m -35.68632,-59.64345 c 0.52414,-0.14468 1.35476,-0.97529 1.49943,-1.49943 0.27098,-0.98174 0.0764,-1.76526 -0.60859,-2.45022 -0.68496,-0.68496 -1.46849,-0.87957 -2.45022,-0.60859 -0.52414,0.14467 -1.35476,0.97529 -1.49943,1.49942 -0.26128,0.94661 -0.0761,1.7454 0.55844,2.40862 0.67002,0.70032 1.51897,0.92109 2.50037,0.6502 z"
       id="path4164" /><path
       style="fill:#60ad33;stroke-width:0.0974618"
       d="m 266.40007,331.1416 -0.29988,-0.29988 v -37.24123 -37.24123 l 0.21929,-0.32222 c 0.13963,-0.20517 0.32549,-0.3413 0.51167,-0.37477 0.16082,-0.0289 18.62495,-0.0401 41.03141,-0.0249 l 40.73902,0.0276 0.24366,0.24365 0.24365,0.24366 0.0247,37.31286 0.0247,37.31286 -0.33174,0.33175 -0.33175,0.33175 h -40.88746 -40.88747 z m 48.39269,-8.3132 c 0.14431,-0.18086 0.83106,-1.66106 1.52611,-3.28933 l 1.26373,-2.9605 2.5341,-15.54516 c 2.05359,-12.59757 2.51686,-15.60983 2.4432,-15.88626 -0.0679,-0.2549 -7.87152,-11.91188 -8.96493,-13.39177 -0.0974,-0.13183 -0.34262,-0.33378 -0.54494,-0.44878 -0.6981,-0.3968 -0.65861,-0.41645 -9.3638,4.65821 -4.38753,2.5577 -8.08771,4.76001 -8.22261,4.89402 -0.26132,0.25959 -0.45935,0.67265 -0.36685,0.76515 0.0307,0.0307 0.15258,-0.005 0.27075,-0.079 0.55464,-0.34808 15.73172,-9.1967 16.07089,-9.36974 0.21239,-0.10835 0.50344,-0.18344 0.64678,-0.16688 l 0.26061,0.0301 0.0256,3.48102 0.0256,3.48102 -0.47106,0.36872 c -0.25908,0.20279 -3.50313,2.64932 -7.20901,5.43673 -3.70588,2.78741 -6.76335,5.14014 -6.79439,5.22831 -0.031,0.0882 0.0497,0.39516 0.17945,0.68223 0.12973,0.28706 3.68836,7.4734 7.90807,15.96963 4.21971,8.49623 7.7804,15.67794 7.91264,15.95936 0.28775,0.61234 0.49296,0.65546 0.87007,0.18284 z m -35.77889,-59.62138 c 0.52414,-0.14468 1.35476,-0.97529 1.49943,-1.49943 0.27098,-0.98174 0.0764,-1.76526 -0.60859,-2.45022 -0.68496,-0.68496 -1.46849,-0.87957 -2.45022,-0.60859 -0.52414,0.14467 -1.35476,0.97529 -1.49943,1.49942 -0.26128,0.94661 -0.0761,1.7454 0.55844,2.40862 0.67002,0.70032 1.51897,0.92109 2.50037,0.6502 z"
       id="path4162" /><path
       style="fill:#4d3aa3;stroke-width:0.0974618"
       d="m 266.40007,331.1416 -0.29988,-0.29988 v -37.24123 -37.24123 l 0.21929,-0.32222 c 0.13963,-0.20517 0.32549,-0.3413 0.51167,-0.37477 0.16082,-0.0289 18.62495,-0.0401 41.03141,-0.0249 l 40.73902,0.0276 0.24366,0.24365 0.24365,0.24366 0.0247,37.31286 0.0247,37.31286 -0.33174,0.33175 -0.33175,0.33175 h -40.88746 -40.88747 z m 48.39269,-8.3132 c 0.14431,-0.18086 0.83106,-1.66106 1.52611,-3.28933 l 1.26373,-2.9605 2.5341,-15.54516 c 2.05359,-12.59757 2.51686,-15.60983 2.4432,-15.88626 -0.0679,-0.2549 -7.87152,-11.91188 -8.96493,-13.39177 -0.0974,-0.13183 -0.34262,-0.33378 -0.54494,-0.44878 -0.6981,-0.3968 -0.65861,-0.41645 -9.3638,4.65821 -4.38753,2.5577 -8.08771,4.76001 -8.22261,4.89402 -0.26132,0.25959 -0.45935,0.67265 -0.36685,0.76515 0.0307,0.0307 0.15258,-0.005 0.27075,-0.079 0.55464,-0.34808 15.73172,-9.1967 16.07089,-9.36974 0.21239,-0.10835 0.50344,-0.18344 0.64678,-0.16688 l 0.26061,0.0301 0.0256,3.48102 0.0256,3.48102 -0.47106,0.36872 c -0.25908,0.20279 -3.50313,2.64932 -7.20901,5.43673 -3.70588,2.78741 -6.76335,5.14014 -6.79439,5.22831 -0.031,0.0882 0.0497,0.39516 0.17945,0.68223 0.12973,0.28706 3.68836,7.4734 7.90807,15.96963 4.21971,8.49623 7.7804,15.67794 7.91264,15.95936 0.28775,0.61234 0.49296,0.65546 0.87007,0.18284 z m -35.77889,-59.62138 c 0.52414,-0.14468 1.35476,-0.97529 1.49943,-1.49943 0.27098,-0.98174 0.0764,-1.76526 -0.60859,-2.45022 -0.68496,-0.68496 -1.46849,-0.87957 -2.45022,-0.60859 -0.52414,0.14467 -1.35476,0.97529 -1.49943,1.49942 -0.26128,0.94661 -0.0761,1.7454 0.55844,2.40862 0.67002,0.70032 1.51897,0.92109 2.50037,0.6502 z m 7.30964,-0.12359 c 1.87515,-0.88648 1.87515,-3.42459 0,-4.31107 -0.64219,-0.30359 -1.30705,-0.30359 -1.94924,0 -1.87515,0.88648 -1.87515,3.42459 0,4.31107 0.30989,0.1465 0.66473,0.23038 0.97462,0.23038 0.30989,0 0.66473,-0.0839 0.97462,-0.23038 z"
       id="path4160" /><path
       style="fill:#48359e;stroke-width:0.0974618"
       d="m 266.40007,331.1416 -0.29988,-0.29988 v -37.24123 -37.24123 l 0.21929,-0.32222 c 0.13963,-0.20517 0.32549,-0.3413 0.51167,-0.37477 0.16082,-0.0289 18.62495,-0.0401 41.03141,-0.0249 l 40.73902,0.0276 0.24366,0.24365 0.24365,0.24366 0.0247,37.31286 0.0247,37.31286 -0.33174,0.33175 -0.33175,0.33175 h -40.88746 -40.88747 z m 48.2736,-8.18252 c 0.28023,-0.24604 0.55667,-0.81399 1.64846,-3.38679 l 1.31177,-3.09119 2.51396,-15.48415 c 2.08995,-12.87249 2.49791,-15.54376 2.41874,-15.83754 -0.10294,-0.38201 -8.87991,-13.39673 -9.22945,-13.68568 -0.38111,-0.31504 -0.64235,-0.37242 -1.21427,-0.26669 -0.44616,0.0825 -1.89578,0.89162 -8.49053,4.73918 -4.37388,2.55184 -8.05584,4.73401 -8.18214,4.84926 -0.22086,0.20153 -0.29801,0.34311 -0.44616,0.81868 -0.0971,0.31163 0.16088,0.28806 0.71599,-0.0654 0.24591,-0.15659 3.95172,-2.32755 8.23514,-4.82436 5.31051,-3.0955 7.87613,-4.53965 8.06496,-4.53965 h 0.27693 v 3.3894 3.3894 l -7.21217,5.43556 c -7.83136,5.90222 -7.3563,5.48053 -7.07438,6.27957 0.0758,0.2148 2.23151,4.61706 4.7905,9.7828 2.55899,5.16573 6.1169,12.35013 7.90646,15.96533 1.78956,3.6152 3.30133,6.63042 3.35949,6.7005 0.15246,0.1837 0.23057,0.16204 0.6067,-0.16821 z m -35.6598,-59.75206 c 0.52414,-0.14468 1.35476,-0.97529 1.49943,-1.49943 0.27098,-0.98174 0.0764,-1.76526 -0.60859,-2.45022 -0.68496,-0.68496 -1.46849,-0.87957 -2.45022,-0.60859 -0.52414,0.14467 -1.35476,0.97529 -1.49943,1.49942 -0.26128,0.94661 -0.0761,1.7454 0.55844,2.40862 0.67002,0.70032 1.51897,0.92109 2.50037,0.6502 z m 7.30964,-0.12359 c 1.87515,-0.88648 1.87515,-3.42459 0,-4.31107 -0.64219,-0.30359 -1.30705,-0.30359 -1.94924,0 -1.87515,0.88648 -1.87515,3.42459 0,4.31107 0.30989,0.1465 0.66473,0.23038 0.97462,0.23038 0.30989,0 0.66473,-0.0839 0.97462,-0.23038 z"
       id="path4158" /><path
       style="fill:#ab3533;stroke-width:0.0974618"
       d="m 266.40007,331.1416 -0.29988,-0.29988 v -37.24123 -37.24123 l 0.21929,-0.32222 c 0.13963,-0.20517 0.32549,-0.3413 0.51167,-0.37477 0.16082,-0.0289 18.62495,-0.0401 41.03141,-0.0249 l 40.73902,0.0276 0.24366,0.24365 0.24365,0.24366 0.0247,37.31286 0.0247,37.31286 -0.33174,0.33175 -0.33175,0.33175 h -40.88746 -40.88747 z m 48.21086,-8.05746 c 0.30625,-0.20066 0.48105,-0.55999 1.86424,-3.83228 l 1.1712,-2.77076 2.49082,-15.33114 c 1.36996,-8.43213 2.49083,-15.45749 2.49083,-15.61191 0,-0.15441 -0.0421,-0.39144 -0.0935,-0.52671 -0.17064,-0.44883 -9.06487,-13.45649 -9.33688,-13.65503 -0.3337,-0.24358 -1.21187,-0.24106 -1.69432,0.005 -1.15277,0.58761 -15.78541,9.18916 -16.0388,9.42814 -0.17204,0.16226 -0.37491,0.47454 -0.45082,0.69394 -0.0759,0.21941 -1.41535,3.279 -2.97654,6.7991 -1.56118,3.52009 -2.83807,6.50242 -2.83754,6.6274 4.9e-4,0.12498 1.29618,-2.68931 2.87922,-6.25398 1.58303,-3.56466 2.93797,-6.54121 3.01097,-6.61454 0.11207,-0.11259 0.33068,0.47157 1.40495,3.75421 1.04377,3.18945 1.28284,4.02721 1.33134,4.66531 0.0325,0.42777 0.14455,6.58892 0.24895,13.69144 0.1044,7.10253 0.23006,13.14102 0.27925,13.41888 0.10733,0.60634 0.1917,0.77395 0.57148,1.13531 0.24619,0.23426 1.35757,0.60629 7.34238,2.45784 6.51683,2.01614 7.09245,2.17763 7.58142,2.12694 0.29102,-0.0302 0.63364,-0.12332 0.76137,-0.20702 z m -35.59706,-59.87712 c 0.52414,-0.14468 1.35476,-0.97529 1.49943,-1.49943 0.27098,-0.98174 0.0764,-1.76526 -0.60859,-2.45022 -0.68496,-0.68496 -1.46849,-0.87957 -2.45022,-0.60859 -0.52414,0.14467 -1.35476,0.97529 -1.49943,1.49942 -0.26128,0.94661 -0.0761,1.7454 0.55844,2.40862 0.67002,0.70032 1.51897,0.92109 2.50037,0.6502 z m 7.30964,-0.12359 c 1.87515,-0.88648 1.87515,-3.42459 0,-4.31107 -0.64219,-0.30359 -1.30705,-0.30359 -1.94924,0 -1.87515,0.88648 -1.87515,3.42459 0,4.31107 0.30989,0.1465 0.66473,0.23038 0.97462,0.23038 0.30989,0 0.66473,-0.0839 0.97462,-0.23038 z"
       id="path4156" /><path
       style="fill:#402d8a;stroke-width:0.0974618"
       d="m 266.40007,331.1416 -0.29988,-0.29988 v -37.24123 -37.24123 l 0.21929,-0.32222 c 0.13963,-0.20517 0.32549,-0.3413 0.51167,-0.37477 0.16082,-0.0289 18.62495,-0.0401 41.03141,-0.0249 l 40.73902,0.0276 0.24366,0.24365 0.24365,0.24366 0.0247,37.31286 0.0247,37.31286 -0.33174,0.33175 -0.33175,0.33175 h -40.88746 -40.88747 z m 48.21086,-8.05746 c 0.30625,-0.20066 0.48105,-0.55999 1.86424,-3.83228 l 1.1712,-2.77076 2.49082,-15.33114 c 1.36996,-8.43213 2.49083,-15.45749 2.49083,-15.61191 0,-0.15441 -0.0421,-0.39144 -0.0935,-0.52671 -0.17064,-0.44883 -9.06487,-13.45649 -9.33688,-13.65503 -0.3337,-0.24358 -1.21187,-0.24106 -1.69432,0.005 -1.15277,0.58761 -15.78541,9.18916 -16.0388,9.42814 -0.17204,0.16226 -0.37491,0.47454 -0.45082,0.69394 -0.0759,0.21941 -1.41535,3.279 -2.97654,6.7991 -1.56118,3.52009 -2.83807,6.50242 -2.83754,6.6274 4.9e-4,0.12498 1.29618,-2.68931 2.87922,-6.25398 1.58303,-3.56466 2.93797,-6.54121 3.01097,-6.61454 0.11207,-0.11259 0.33068,0.47157 1.40495,3.75421 1.04377,3.18945 1.28284,4.02721 1.33134,4.66531 0.0325,0.42777 0.14455,6.58892 0.24895,13.69144 0.1044,7.10253 0.23006,13.14102 0.27925,13.41888 0.10733,0.60634 0.1917,0.77395 0.57148,1.13531 0.24619,0.23426 1.35757,0.60629 7.34238,2.45784 6.51683,2.01614 7.09245,2.17763 7.58142,2.12694 0.29102,-0.0302 0.63364,-0.12332 0.76137,-0.20702 z m -42.76621,-59.82449 c 0.73785,-0.21912 1.3991,-0.89703 1.62261,-1.66351 0.64004,-2.19487 -1.90814,-3.99725 -3.75738,-2.65767 -1.25927,0.91221 -1.3969,2.60345 -0.30103,3.69932 0.71213,0.71213 1.47553,0.90703 2.4358,0.62186 z m 7.16915,-0.0526 c 0.52414,-0.14468 1.35476,-0.97529 1.49943,-1.49943 0.27098,-0.98174 0.0764,-1.76526 -0.60859,-2.45022 -0.68496,-0.68496 -1.46849,-0.87957 -2.45022,-0.60859 -0.52414,0.14467 -1.35476,0.97529 -1.49943,1.49942 -0.26128,0.94661 -0.0761,1.7454 0.55844,2.40862 0.67002,0.70032 1.51897,0.92109 2.50037,0.6502 z m 7.30964,-0.12359 c 1.87515,-0.88648 1.87515,-3.42459 0,-4.31107 -0.64219,-0.30359 -1.30705,-0.30359 -1.94924,0 -1.87515,0.88648 -1.87515,3.42459 0,4.31107 0.30989,0.1465 0.66473,0.23038 0.97462,0.23038 0.30989,0 0.66473,-0.0839 0.97462,-0.23038 z"
       id="path4154" /><path
       style="fill:#3e2b87;stroke-width:0.0974618"
       d="m 266.40007,331.1416 -0.29988,-0.29988 v -37.24123 -37.24123 l 0.21929,-0.32222 c 0.13963,-0.20517 0.32549,-0.3413 0.51167,-0.37477 0.16082,-0.0289 18.62495,-0.0401 41.03141,-0.0249 l 40.73902,0.0276 0.24366,0.24365 0.24365,0.24366 0.0247,37.31286 0.0247,37.31286 -0.33174,0.33175 -0.33175,0.33175 h -40.88746 -40.88747 z m 47.83812,-7.88458 c 0.18244,-0.0523 0.43206,-0.1894 0.5547,-0.30461 0.12792,-0.12018 0.78629,-1.53318 1.54422,-3.31422 l 1.32123,-3.10473 2.2859,-14.06067 c 1.25725,-7.73337 2.3927,-14.71164 2.52322,-15.50727 0.17332,-1.05648 0.21314,-1.53418 0.14765,-1.77133 -0.0944,-0.34194 -0.29337,-0.64247 -5.70892,-8.62368 -2.28051,-3.36093 -3.51272,-5.09173 -3.72947,-5.23857 -0.37949,-0.25708 -1.00789,-0.29049 -1.5109,-0.0803 -0.42373,0.17705 -15.68152,9.06466 -16.114,9.38636 -0.17763,0.13212 -0.38457,0.3784 -0.45989,0.54728 -5.00432,11.22123 -5.92962,13.3831 -5.92974,13.85426 -9e-5,0.42208 0.59071,1.90264 4.41424,11.06191 2.4279,5.81603 4.51602,10.92148 4.64028,11.34545 0.24727,0.84374 0.44944,1.1786 0.88243,1.46166 0.39148,0.25591 13.93229,4.41935 14.41685,4.43279 0.21477,0.006 0.53976,-0.032 0.7222,-0.0843 z M 297.90832,311.9004 c 3e-4,-0.53604 0.0166,-0.74289 0.0364,-0.45968 0.0198,0.28322 0.0196,0.7218 -4.8e-4,0.97462 -0.02,0.25282 -0.0361,0.0211 -0.0359,-0.51494 z m -0.0979,-6.96852 c 0,-0.50923 0.0164,-0.71756 0.0365,-0.46294 0.0201,0.25462 0.0201,0.67127 0,0.92589 -0.0201,0.25462 -0.0365,0.0463 -0.0365,-0.46295 z m -0.0975,-6.91978 c 0,-0.50924 0.0164,-0.71756 0.0365,-0.46294 0.0201,0.25461 0.0201,0.67126 0,0.92588 -0.0201,0.25462 -0.0365,0.0463 -0.0365,-0.46294 z m -0.098,-6.87106 c -2.9e-4,-0.48243 0.0162,-0.69208 0.0366,-0.46588 0.0204,0.2262 0.0207,0.62092 5.9e-4,0.87716 -0.0202,0.25623 -0.0369,0.0712 -0.0372,-0.41128 z M 271.8447,263.25965 c 0.73785,-0.21912 1.3991,-0.89703 1.62261,-1.66351 0.64004,-2.19487 -1.90814,-3.99725 -3.75738,-2.65767 -1.25927,0.91221 -1.3969,2.60345 -0.30103,3.69932 0.71213,0.71213 1.47553,0.90703 2.4358,0.62186 z m 7.16915,-0.0526 c 0.52414,-0.14468 1.35476,-0.97529 1.49943,-1.49943 0.27098,-0.98174 0.0764,-1.76526 -0.60859,-2.45022 -0.68496,-0.68496 -1.46849,-0.87957 -2.45022,-0.60859 -0.52414,0.14467 -1.35476,0.97529 -1.49943,1.49942 -0.26128,0.94661 -0.0761,1.7454 0.55844,2.40862 0.67002,0.70032 1.51897,0.92109 2.50037,0.6502 z m 7.30964,-0.12359 c 1.87515,-0.88648 1.87515,-3.42459 0,-4.31107 -0.64219,-0.30359 -1.30705,-0.30359 -1.94924,0 -1.87515,0.88648 -1.87515,3.42459 0,4.31107 0.30989,0.1465 0.66473,0.23038 0.97462,0.23038 0.30989,0 0.66473,-0.0839 0.97462,-0.23038 z"
       id="path4152" /><path
       style="fill:#58612c;stroke-width:0.0974618"
       d="m 266.40007,331.1416 -0.29988,-0.29988 v -37.24123 -37.24123 l 0.21929,-0.32222 c 0.13963,-0.20517 0.32549,-0.3413 0.51167,-0.37477 0.16082,-0.0289 18.62495,-0.0401 41.03141,-0.0249 l 40.73902,0.0276 0.24366,0.24365 0.24365,0.24366 0.0247,37.31286 0.0247,37.31286 -0.33174,0.33175 -0.33175,0.33175 h -40.88746 -40.88747 z m 48.10777,-7.93945 c 0.11704,-0.0761 0.31882,-0.28181 0.4484,-0.45712 0.22647,-0.30639 2.54496,-5.66339 2.71101,-6.26393 0.0445,-0.16081 1.20193,-7.19098 2.57215,-15.62259 2.19151,-13.48544 2.47804,-15.37367 2.38115,-15.69135 -0.1766,-0.57897 -9.03926,-13.56399 -9.44632,-13.84016 -0.28679,-0.19456 -0.43463,-0.22567 -0.92822,-0.19531 -0.57586,0.0354 -0.73999,0.12527 -8.57664,4.69463 -4.39424,2.56218 -8.13175,4.79481 -8.30556,4.96139 -0.17382,0.16658 -0.34427,0.39327 -0.37879,0.50375 -0.0345,0.11048 -1.35642,3.11741 -2.93757,6.68208 -1.58115,3.56466 -2.91764,6.64363 -2.96998,6.84216 -0.0727,0.27569 -0.0577,0.47136 0.0635,0.82842 0.21026,0.61956 9.07153,22.07763 9.34652,22.63312 0.11753,0.23742 0.3308,0.51748 0.47392,0.62235 0.14312,0.10487 3.43246,1.17122 7.30963,2.36966 6.32931,1.9564 7.09919,2.17348 7.53672,2.12512 0.26802,-0.0296 0.58307,-0.11613 0.70011,-0.19222 z m -42.66312,-59.9425 c 0.73785,-0.21912 1.3991,-0.89703 1.62261,-1.66351 0.64004,-2.19487 -1.90814,-3.99725 -3.75738,-2.65767 -1.25927,0.91221 -1.3969,2.60345 -0.30103,3.69932 0.71213,0.71213 1.47553,0.90703 2.4358,0.62186 z m 7.16915,-0.0526 c 0.52414,-0.14468 1.35476,-0.97529 1.49943,-1.49943 0.27098,-0.98174 0.0764,-1.76526 -0.60859,-2.45022 -0.68496,-0.68496 -1.46849,-0.87957 -2.45022,-0.60859 -0.52414,0.14467 -1.35476,0.97529 -1.49943,1.49942 -0.26128,0.94661 -0.0761,1.7454 0.55844,2.40862 0.67002,0.70032 1.51897,0.92109 2.50037,0.6502 z m 7.30964,-0.12359 c 1.87515,-0.88648 1.87515,-3.42459 0,-4.31107 -0.64219,-0.30359 -1.30705,-0.30359 -1.94924,0 -1.87515,0.88648 -1.87515,3.42459 0,4.31107 0.30989,0.1465 0.66473,0.23038 0.97462,0.23038 0.30989,0 0.66473,-0.0839 0.97462,-0.23038 z"
       id="path4150" /><path
       style="fill:#2f235e;stroke-width:0.0974618"
       d="m 266.78796,331.37084 c -0.0774,-0.0306 -0.25279,-0.16775 -0.38985,-0.3048 l -0.24919,-0.24919 -0.0247,-37.20672 -0.0247,-37.20671 0.28414,-0.27177 c 0.15628,-0.14947 0.35196,-0.32659 0.43484,-0.39359 0.12002,-0.097 8.426,-0.12183 40.80048,-0.12183 32.37449,0 40.68047,0.0248 40.80049,0.12183 0.0829,0.067 0.27856,0.24412 0.43484,0.39359 l 0.28414,0.27177 -0.0247,37.20228 -0.0247,37.20228 -0.29239,0.29239 -0.29238,0.29239 -40.78775,0.0168 c -22.43327,0.009 -40.85105,-0.008 -40.92841,-0.0388 z m 47.71988,-8.16869 c 0.11704,-0.0761 0.31882,-0.28181 0.4484,-0.45712 0.22647,-0.30639 2.54496,-5.66339 2.71101,-6.26393 0.0445,-0.16081 1.20193,-7.19098 2.57215,-15.62259 2.19151,-13.48544 2.47804,-15.37367 2.38115,-15.69135 -0.1766,-0.57897 -9.03926,-13.56399 -9.44632,-13.84016 -0.28679,-0.19456 -0.43463,-0.22567 -0.92822,-0.19531 -0.57586,0.0354 -0.73999,0.12527 -8.57664,4.69463 -4.39424,2.56218 -8.13175,4.79481 -8.30556,4.96139 -0.17382,0.16658 -0.34427,0.39327 -0.37879,0.50375 -0.0345,0.11048 -1.35642,3.11741 -2.93757,6.68208 -1.58115,3.56466 -2.91764,6.64363 -2.96998,6.84216 -0.0727,0.27569 -0.0577,0.47136 0.0635,0.82842 0.21026,0.61956 9.07153,22.07763 9.34652,22.63312 0.11753,0.23742 0.3308,0.51748 0.47392,0.62235 0.14312,0.10487 3.43246,1.17122 7.30963,2.36966 6.32931,1.9564 7.09919,2.17348 7.53672,2.12512 0.26802,-0.0296 0.58307,-0.11613 0.70011,-0.19222 z m -35.19452,-59.96483 c 0.4524,-0.23339 1.02079,-0.80852 1.271,-1.28608 0.24522,-0.46803 0.24522,-1.57865 0,-2.04669 -0.24878,-0.47483 -0.8154,-1.04973 -1.27806,-1.29673 -0.29143,-0.15559 -0.56209,-0.20814 -1.07208,-0.20814 -0.79511,0 -1.25779,0.20121 -1.81667,0.79001 -0.55927,0.58923 -0.71219,0.96244 -0.71219,1.73821 0,0.77582 0.153,1.14919 0.71219,1.73798 0.35391,0.37264 0.72017,0.60787 1.18254,0.75949 0.38759,0.12711 1.29554,0.0274 1.71327,-0.18805 z m 6.77321,0.11663 c 0.97006,-0.28713 1.8451,-1.43767 1.8451,-2.42605 0,-0.98838 -0.87504,-2.13893 -1.8451,-2.42606 -0.65941,-0.19517 -0.81587,-0.19517 -1.47528,0 -0.97006,0.28713 -1.8451,1.43768 -1.8451,2.42606 0,0.95705 0.81511,2.06715 1.75642,2.39207 0.65945,0.22762 0.89261,0.23269 1.56396,0.034 z m -14.18736,-0.0492 c 0.52985,-0.14589 1.45126,-1.0673 1.59715,-1.59716 0.27754,-1.00799 0.079,-1.76291 -0.65732,-2.49922 -0.73631,-0.73631 -1.49123,-0.93486 -2.49922,-0.65732 -0.52986,0.14589 -1.45127,1.06729 -1.59716,1.59715 -0.26851,0.97522 -0.0776,1.74729 0.60792,2.45903 0.72223,0.7498 1.54294,0.97442 2.54863,0.69752 z"
       id="path4148" /><path
       style="fill:#272727;stroke-width:0.0974618"
       d="m 266.78796,331.37084 c -0.0774,-0.0306 -0.25279,-0.16775 -0.38985,-0.3048 l -0.24919,-0.24919 -0.0247,-37.20672 -0.0247,-37.20671 0.28414,-0.27177 c 0.15628,-0.14947 0.35196,-0.32659 0.43484,-0.39359 0.12002,-0.097 8.426,-0.12183 40.80048,-0.12183 32.37449,0 40.68047,0.0248 40.80049,0.12183 0.0829,0.067 0.27856,0.24412 0.43484,0.39359 l 0.28414,0.27177 -0.0247,37.20228 -0.0247,37.20228 -0.29239,0.29239 -0.29238,0.29239 -40.78775,0.0168 c -22.43327,0.009 -40.85105,-0.008 -40.92841,-0.0388 z m 47.37071,-7.93429 c 0.71342,-0.23802 0.88416,-0.52193 2.27604,-3.78452 l 1.31382,-3.0796 2.44651,-15.00604 c 1.34557,-8.25333 2.47107,-15.27616 2.5011,-15.6063 0.03,-0.33014 0.009,-0.73056 -0.0463,-0.88982 -0.17464,-0.50097 -9.09038,-13.55778 -9.41683,-13.79065 -0.23761,-0.16949 -0.43812,-0.2157 -0.9359,-0.2157 h -0.6335 l -8.0303,4.67817 c -4.41666,2.57299 -8.15983,4.81118 -8.31816,4.97375 -0.20113,0.20653 -1.20021,2.35017 -3.31593,7.11471 -2.79886,6.30297 -3.02778,6.85969 -3.0243,7.35516 0.003,0.48207 0.48048,1.68313 4.73847,11.92881 3.31261,7.97088 4.81429,11.47583 4.99966,11.66931 0.14572,0.1521 0.44471,0.3452 0.66443,0.42911 0.88651,0.33857 13.96096,4.32652 14.19646,4.33019 0.13941,0.002 0.40255,-0.0458 0.58477,-0.10658 z m -34.84535,-60.19923 c 0.4524,-0.23339 1.02079,-0.80852 1.271,-1.28608 0.24522,-0.46803 0.24522,-1.57865 0,-2.04669 -0.24878,-0.47483 -0.8154,-1.04973 -1.27806,-1.29673 -0.29143,-0.15559 -0.56209,-0.20814 -1.07208,-0.20814 -0.79511,0 -1.25779,0.20121 -1.81667,0.79001 -0.55927,0.58923 -0.71219,0.96244 -0.71219,1.73821 0,0.77582 0.153,1.14919 0.71219,1.73798 0.35391,0.37264 0.72017,0.60787 1.18254,0.75949 0.38759,0.12711 1.29554,0.0274 1.71327,-0.18805 z m 6.77321,0.11663 c 0.97006,-0.28713 1.8451,-1.43767 1.8451,-2.42605 0,-0.98838 -0.87504,-2.13893 -1.8451,-2.42606 -0.65941,-0.19517 -0.81587,-0.19517 -1.47528,0 -0.97006,0.28713 -1.8451,1.43768 -1.8451,2.42606 0,0.95705 0.81511,2.06715 1.75642,2.39207 0.65945,0.22762 0.89261,0.23269 1.56396,0.034 z m -14.18736,-0.0492 c 0.52985,-0.14589 1.45126,-1.0673 1.59715,-1.59716 0.27754,-1.00799 0.079,-1.76291 -0.65732,-2.49922 -0.73631,-0.73631 -1.49123,-0.93486 -2.49922,-0.65732 -0.52986,0.14589 -1.45127,1.06729 -1.59716,1.59715 -0.26851,0.97522 -0.0776,1.74729 0.60792,2.45903 0.72223,0.7498 1.54294,0.97442 2.54863,0.69752 z"
       id="path4146" /><path
       style="fill:#000000;stroke-width:0.0974618"
       d="m 266.54202,330.99966 -0.34437,-0.34437 v -32.20786 -32.20787 h 41.42125 41.42126 v 32.20787 32.20786 l -0.34437,0.34437 -0.34436,0.34436 H 307.6189 266.88638 Z m 47.93711,-7.6281 c 0.1554,-0.0911 0.40322,-0.3191 0.55071,-0.50671 0.31913,-0.40595 2.68469,-5.93707 2.82388,-6.60274 0.18831,-0.90063 4.96919,-30.4635 4.96708,-30.71427 -0.001,-0.13998 -0.0826,-0.42993 -0.181,-0.64435 -0.16861,-0.36748 -8.72237,-13.04851 -9.06284,-13.43573 -0.33023,-0.37558 -0.8926,-0.57704 -1.45016,-0.51949 -0.47196,0.0487 -1.29019,0.50153 -8.51834,4.7142 -4.39792,2.56318 -8.13733,4.79189 -8.3098,4.9527 -0.248,0.23125 -0.95232,1.72922 -3.3681,7.16344 -2.6324,5.92148 -3.05559,6.9384 -3.06219,7.35837 -0.007,0.4296 0.52169,1.76251 4.46286,11.25683 2.45879,5.92324 4.59411,11.07235 4.74516,11.44247 0.31981,0.78363 0.74391,1.26296 1.30058,1.46997 0.33301,0.12384 13.26093,4.11156 13.84599,4.27091 0.30247,0.0824 0.94392,-0.0226 1.25617,-0.2056 z"
       id="path4144" /></g></g></svg>
